<?xml version="1.0" encoding="utf-8"?>
<!-- Generator: Adobe Illustrator 22.0.0, SVG Export Plug-In . SVG Version: 6.00 Build 0)  -->
<svg version="1.1" id="Layer_1" xmlns="http://www.w3.org/2000/svg" xmlns:xlink="http://www.w3.org/1999/xlink" x="0px" y="0px"
	 viewBox="0 0 62 53.2" style="enable-background:new 0 0 62 53.2;" xml:space="preserve">
<style type="text/css">
	.st0{fill:#FFFFFF;}
</style>
<g>
	<g>
		<g>
			<path class="st0" d="M39.6,27.1c-2.2,0-4,0-6.2,0c-1.6-3.9,0.2-8.1-0.9-12c-0.7-1-1.6-0.6-3.1-0.6c0,4,0,8.1,0,11.8
				c-2.6,1.3-4.7,0.7-7.3,0.7c0-4,0-8,0-11.7c-2-1.2-3.5-0.7-5.3-0.6c0,3.8,0,7.6,0,10.8c-1.6,2.2-4.3,1.7-5.5,4.3c0,2,0,4.6,0,7.6
				c0.5,0.8,1.1,0.1,1.7-0.5c1.2-1.4,2.9-0.3,4.2-0.8c3-1.1,4.8,1.8,7.4,1.9c2.5,0.1,3.9-2,6.5-2.1c2.6,0,4,2.2,6.5,2.1
				c2.4-0.1,3.7-3,6.5-2c2,0.7,4.7-1.1,6.6,3.7c0-4.8,0-7.4,0-10.4c-1-1.4-2.7-2.4-5.1-2.8c0-3.8,0-7.6,0-11.1
				c-1.5-1.8-3.2-0.5-4.9-1.4C39,18.5,41,23.1,39.6,27.1z"/>
			<path class="st0" d="M50.8,50.2c0-2.8,0-5.5,0-8c-3.4-1-6.4-4.6-10.2-0.8c-0.8,0.7-3.3,0.7-4.3,0c-3.6-2.3-6.8-2.3-10.4,0
				c-1.1,0.7-3.6,0.7-4.3,0c-3.8-3.9-6.8-0.1-10.3,0.7c0,2.6,0,5.2,0,8.1C24.4,50.2,37.5,50.2,50.8,50.2z"/>
			<path class="st0" d="M20.8,5.2c-2.8,0.9-4.4,2-4.4,4.4c2.4,1.2,2.4,1.2,4.6,1.3C22.4,9.1,22.4,7.3,20.8,5.2z"/>
			<path class="st0" d="M45.2,5.6c-3.6-0.3-4.8,1.6-5.3,4.3c1.7,1.7,3.4,1,5.3,0.6C45.2,9,45.2,7.4,45.2,5.6z"/>
			<path class="st0" d="M33.2,3c-4.1,2.6-4.4,4.9-3.8,7.7c1.2,0,2,0,2.9,0C33.5,8.5,32.4,6.3,33.2,3z"/>
		</g>
	</g>
</g>
</svg>
