<svg xmlns="http://www.w3.org/2000/svg" xmlns:xlink="http://www.w3.org/1999/xlink" viewBox="0 0 55 37.81"><defs><style>.cls-1{fill:#fff;}</style><symbol id="Credit_Card_2" data-name="Credit Card 2" viewBox="0 0 64 44"><path class="cls-1" d="M58,0H6A6,6,0,0,0,0,6V38a6,6,0,0,0,6,6H58a6,6,0,0,0,6-6V6A6,6,0,0,0,58,0Zm3,38a3,3,0,0,1-3,3H6a3,3,0,0,1-3-3V20.67H61ZM3,10.67V6A3,3,0,0,1,6,3H58a3,3,0,0,1,3,3v4.67Z"/></symbol></defs><title>Credit Card</title><g id="Layer_2" data-name="Layer 2"><g id="menu"><use id="Credit_Card_2-3" data-name="Credit Card 2" width="64" height="44" transform="scale(0.86)" xlink:href="#Credit_Card_2"/></g></g></svg>