<?xml version="1.0" encoding="utf-8"?>
<!-- Generator: Adobe Illustrator 22.0.0, SVG Export Plug-In . SVG Version: 6.00 Build 0)  -->
<svg version="1.1" id="Layer_1" xmlns="http://www.w3.org/2000/svg" xmlns:xlink="http://www.w3.org/1999/xlink" x="0px" y="0px"
	 viewBox="0 0 46.2 54.1" style="enable-background:new 0 0 46.2 54.1;" xml:space="preserve">
<style type="text/css">
	.st0{fill:#FFFFFF;}
</style>
<g>
	<g>
		<g>
			<path class="st0" d="M24.7,1.6C19,1.1,15.1,2.9,11.3,4C9.4,4.6,7.6,4.7,5.7,4.9C4,5.1,3.3,6.5,2.5,7.5c-0.7,0.9,0,2.1,1,2.9
				c1.2,0.9,0.9,2.7,0.5,3.1c-2.9,2.7,0.3,6.2-1.5,9.3c-1.2,2.1,0.5,3.3,3.3,3c1.7-0.2,2.1-1.5,1.6-2.3c-1.8-2.6-3-4.9,0-7.3
				c-0.9-1-1.9-1.9-1.8-3.6c0.1-1.7,0.4-2.7,2.4-2.5c1.4,0.1,3-0.3,2.9,1.9c0,1.4,0.1,2.9,0,4.3c-0.3,3.3,0.2,6,3.1,8.3
				c3.1,2.5,6,4.7,10.2,4.6c2.1-0.1,3.6-0.7,5.2-2c4.3-3.5,6.7-7.6,5.7-13.3c-0.5-2.8,0.1-4.6,3.6-3.9c0.8,0.2,1.9,0.3,2.5-0.1
				c1-0.6,2.2-1.5,2.3-2.4c0.1-0.7-1.2-2.1-2.1-2.3C35.4,3.8,29.3,2.6,24.7,1.6z"/>
			<path class="st0" d="M23.1,50.1c5.2,0,10.4,0,15.5,0c5.3,0,5-0.1,5.3-5.7c0.2-3.1-1.3-5.4-2.5-7.7c-1.2-2.4-4.3-3.2-6.9-3.9
				c-2.8-0.7-3.9,2-5.4,3.5c-6.1,5.9-6.1,5.9-12.1,0c-2-2-3.7-4.6-7.1-3.2c-4,1.6-7,4.2-7.5,8.8c-0.2,2,0,4.1-0.1,6.1
				c-0.1,2,1,2.3,2.6,2.3C11,50,17,50.1,23.1,50.1z"/>
		</g>
	</g>
</g>
</svg>
