<svg xmlns="http://www.w3.org/2000/svg" xmlns:xlink="http://www.w3.org/1999/xlink" viewBox="0 0 42.22 36.83"><defs><style>.cls-1{fill:#fff;}</style><symbol id="Comments_-_Grey" data-name="Comments - Grey" viewBox="0 0 34 29.65"><path class="cls-1" d="M17,0c9.39,0,17,6.14,17,13.72a12,12,0,0,1-3.27,8.08l3.16,7.85L20.5,27c-1.4,0-3,.38-4.53.42h-.53C6.33,27.39,0,21.15,0,13.72,0,6.14,7.61,0,17,0m0,3.72c-7.32,0-13.28,4.49-13.28,10,0,5.67,5,10,11.72,10h.43a19.61,19.61,0,0,0,2-.19,24.78,24.78,0,0,1,2.49-.22l.42,0,.42.09,6.63,1.33-.59-1.46L26.41,21,28,19.3a8.37,8.37,0,0,0,2.3-5.58c0-5.51-6-10-13.28-10Z"/><ellipse class="cls-1" cx="9.64" cy="13.83" rx="1.64" ry="2"/><ellipse class="cls-1" cx="17" cy="13.83" rx="1.64" ry="2"/><ellipse class="cls-1" cx="24.36" cy="13.83" rx="1.64" ry="2"/></symbol></defs><title>messages</title><g id="Layer_2" data-name="Layer 2"><g id="menu"><use id="Comments_-_Grey-3" data-name="Comments - Grey" width="34" height="29.65" transform="scale(1.24)" xlink:href="#Comments_-_Grey"/></g></g></svg>