<?xml version="1.0" encoding="utf-8"?>
<!-- Generator: Adobe Illustrator 22.0.0, SVG Export Plug-In . SVG Version: 6.00 Build 0)  -->
<svg version="1.1" id="Layer_1" xmlns="http://www.w3.org/2000/svg" xmlns:xlink="http://www.w3.org/1999/xlink" x="0px" y="0px"
	 viewBox="0 0 62 53.2" style="enable-background:new 0 0 62 53.2;" xml:space="preserve">
<style type="text/css">
	.st0{fill:#FFFFFF;}
</style>
<g>
	<g>
		<g>
			<path class="st0" d="M32.4,51.5c6.4,0,12.9,0.1,19.3,0c5.3-0.1,9-3.7,9.1-9c0.1-3.8,1.3-9-0.7-11.2c-1.8-2-7.2-0.9-11.1-1.1
				c-2.5-0.1-5-0.1-7.5,0.1c-0.8,0.1-2.2,1.1-2.1,1.5c1.1,6.2-3.4,4.6-6.7,4.8c-2.1,0.1-4.3,0.2-6.4-0.1c-0.7-0.1-2.1-1.2-2-1.7
				c1.1-5.3-2.5-4.7-5.7-4.6c-2.1,0-4.4-0.3-6.4,0.1c-3.1,0.7-8.4-2.6-9.2,1.9C2,38.4,1.4,45.5,7.2,50.4c1.1,1,3.2,1,4.9,1.1
				C18.8,51.6,25.6,51.5,32.4,51.5z"/>
			<path class="st0" d="M32.9,26c8.2,0,16.4-0.2,24.7,0.1c3.2,0.1,3.7-1.5,3.2-3.8c-0.4-1.9-1.5-3.7-1.8-5.6
				c-0.4-2.4-0.9-3.9-3.8-3.5c-2.1,0.3-4.3-0.1-6.4,0.1c-2.3,0.2-2.8-0.8-3.1-3c-0.9-7.5-1.1-7.6-8-7.7c-4.3-0.1-8.6-0.1-12.9,0
				c-5.3,0.1-6.6,1.1-6.9,6.6c-0.2,3.2-1,4.5-4.2,4c-1.1-0.1-2.1,0-3.2,0c-4.1,0.1-6.8,2.2-7.7,5.9C1.5,24,3,25.9,8.2,26
				C16.4,26,24.7,26,32.9,26z M31.3,8.9c2.1,0,4.3-0.2,6.4,0.1c0.6,0.1,1.6,1.3,1.6,2c0,0.7-1,2-1.5,2c-3.9,0.2-7.8,0.2-11.7,0
				c-0.6,0-1.6-1.3-1.6-2c0-0.7,0.9-1.9,1.6-2C27.7,8.7,29.5,8.9,31.3,8.9z"/>
		</g>
	</g>
</g>
</svg>
