<?xml version="1.0" encoding="utf-8"?>
<!-- Generator: Adobe Illustrator 22.0.0, SVG Export Plug-In . SVG Version: 6.00 Build 0)  -->
<svg version="1.1" id="Layer_1" xmlns="http://www.w3.org/2000/svg" xmlns:xlink="http://www.w3.org/1999/xlink" x="0px" y="0px"
	 viewBox="0 0 117.1 118" style="enable-background:new 0 0 117.1 118;" xml:space="preserve">
<style type="text/css">
	.st0{fill:#0D1530;}
</style>
<g>
	<polygon class="st0" points="34.2,60.6 34.2,35.1 4,60.6 	"/>
	<path class="st0" d="M49.9,115.1c0.3,0,0.5,0.1,0.8,0.1V87.9H34.4L49.9,115.1z"/>
	<path class="st0" d="M27.4,31.7V10.6c-3.9,2.4-7.5,5.2-10.7,8.4L27.4,31.7z"/>
	<path class="st0" d="M54.7,2.5c-7.7,0.3-15,2-21.6,5.1l21.6,25.6V2.5z"/>
	<path class="st0" d="M107.5,34.5H83.1H55.8h-1.1H34.6v0.1l32.5,53.3h0l-15.6,27.3c1.7,0.1,3.4,0.2,5.1,0.2
		c31.2,0,56.5-25.3,56.5-56.5C113.1,50.2,111.1,41.9,107.5,34.5z"/>
	<path class="st0" d="M56.6,2.5c-0.2,0-0.3,0-0.5,0l27,32V9.1C75.2,4.9,66.2,2.5,56.6,2.5z"/>
	<path class="st0" d="M34.2,87.9V61.2L6.3,84.8c6,11.6,15.8,20.9,27.9,26.1V87.9z"/>
</g>
</svg>
