<?xml version="1.0" encoding="utf-8"?>
<!-- Generator: Adobe Illustrator 22.0.0, SVG Export Plug-In . SVG Version: 6.00 Build 0)  -->
<svg version="1.1" id="Layer_1" xmlns="http://www.w3.org/2000/svg" xmlns:xlink="http://www.w3.org/1999/xlink" x="0px" y="0px"
	 viewBox="0 0 74.8 51.2" style="enable-background:new 0 0 74.8 51.2;" xml:space="preserve">
<style type="text/css">
	.st0{fill:#FFFFFF;}
</style>
<g>
	<g>
		<g>
			<path class="st0" d="M21.9,48.5c5,0,10,0.2,15,0c4.8-0.2,6-1.7,6-6.4c-0.1-7.7-6.3-13.4-13.6-11.6c-5.1,1.3-9.6,1.2-14.6-0.1
				c-4.7-1.3-8.6,1.2-11.4,4.8c-2.5,3.2-2.3,7.1-1,10.7c1.3,3.3,4.6,2.6,7.4,2.6C13.7,48.6,17.8,48.5,21.9,48.5
				C21.9,48.5,21.9,48.5,21.9,48.5z"/>
			<path class="st0" d="M33.6,14.9c0-6.2-5-11-11.4-10.9c-6.4,0-11.3,4.8-11.3,11c0,6.2,5,10.9,11.4,10.9
				C28.6,25.9,33.6,21.1,33.6,14.9z"/>
			<path class="st0" d="M59.8,44.9c1.9,0,3.7,0.1,5.6,0c5.4-0.3,7.6-3.9,5-8.6c-1.9-3.5-5.1-5.3-8.9-6c-1.8-0.3-3.7-0.2-5.6,0
				c-3.3,0.3-7.4-1.7-9.9,0.8c-2.8,2.8,1.7,6,1.2,9.4c-0.6,3.8,1.9,4.6,5.2,4.5C54.8,44.8,57.3,44.9,59.8,44.9z"/>
			<path class="st0" d="M63.8,16.8c0.1-6-3-9.1-9.1-9.3c-6.6-0.2-10,3-10,9.3c0.1,5.4,3.9,9,9.6,9C59.9,25.9,63.7,22.3,63.8,16.8z"
				/>
		</g>
	</g>
</g>
</svg>
